<svg xmlns="http://www.w3.org/2000/svg" xmlns:xlink="http://www.w3.org/1999/xlink" xmlns:lucid="lucid" width="2056.05" height="1576"><g transform="translate(-108 -44)" lucid:page-tab-id="0_0"><path d="M0 0h3676.8v2582.4H0z" fill="#fff"/><path d="M1241.6 256c21.2 0 38.4 14.33 38.4 32s-17.2 32-38.4 32h-115.2c-21.2 0-38.4-14.33-38.4-32s17.2-32 38.4-32z" stroke="#000" stroke-width="2" fill="#c1e4f7"/><use xlink:href="#a" transform="matrix(1,0,0,1,1093,261) translate(36.372187499999995 23.44921875)"/><use xlink:href="#b" transform="matrix(1,0,0,1,1093,261) translate(105.120234375 23.44921875)"/><use xlink:href="#c" transform="matrix(1,0,0,1,1093,261) translate(49.977656249999995 44.54296875)"/><path d="M1104 384h160v64h-160z" stroke="#000" stroke-width="2" fill="#e5e5e5"/><use xlink:href="#d" transform="matrix(1,0,0,1,1109,389) translate(30.2373046875 33.57421875)"/><use xlink:href="#e" transform="matrix(1,0,0,1,1109,389) translate(60.7880859375 33.57421875)"/><path d="M896 384h176v64H896z" fill="none"/><path d="M1072 448c-2.2 0-4-1.8-4-4v-24c0-2.2-1.8-4-4-4 2.2 0 4-1.8 4-4v-24c0-2.2 1.8-4 4-4" stroke="#000" stroke-width="2" fill="none"/><use xlink:href="#f" transform="matrix(1,0,0,1,901,389) translate(4.33984375 22.60546875)"/><use xlink:href="#g" transform="matrix(1,0,0,1,901,389) translate(65.2392578125 22.60546875)"/><use xlink:href="#h" transform="matrix(1,0,0,1,901,389) translate(95.025390625 22.60546875)"/><use xlink:href="#i" transform="matrix(1,0,0,1,901,389) translate(18.15625 43.69921875)"/><use xlink:href="#j" transform="matrix(1,0,0,1,901,389) translate(64.755859375 43.69921875)"/><use xlink:href="#g" transform="matrix(1,0,0,1,901,389) translate(85.181640625 43.69921875)"/><use xlink:href="#k" transform="matrix(1,0,0,1,901,389) translate(114.9677734375 43.69921875)"/><path d="M1184 322v42.5" stroke="#000" stroke-width="2" fill="none"/><path d="M1185 322.03h-2V321h2z"/><path d="M1184 379.76l-4.64-14.26h9.28z" stroke="#000" stroke-width="2"/><path d="M1360 512h224v64h-224z" stroke="#000" stroke-width="2" fill="#e5e5e5"/><use xlink:href="#d" transform="matrix(1,0,0,1,1365,517) translate(11.48486328125 23.44921875)"/><use xlink:href="#l" transform="matrix(1,0,0,1,1365,517) translate(42.03564453125 23.44921875)"/><use xlink:href="#m" transform="matrix(1,0,0,1,1365,517) translate(122.41162109375 23.44921875)"/><use xlink:href="#n" transform="matrix(1,0,0,1,1365,517) translate(56.17724609375 44.54296875)"/><use xlink:href="#o" transform="matrix(1,0,0,1,1365,517) translate(96.19384765625 44.54296875)"/><path d="M1648 512h224v64h-224z" stroke="#000" stroke-width="2" fill="#e5e5e5"/><use xlink:href="#d" transform="matrix(1,0,0,1,1653,517) translate(9.27880859375 23.44921875)"/><use xlink:href="#p" transform="matrix(1,0,0,1,1653,517) translate(39.82958984375 23.44921875)"/><use xlink:href="#m" transform="matrix(1,0,0,1,1653,517) translate(124.61767578125 23.44921875)"/><use xlink:href="#n" transform="matrix(1,0,0,1,1653,517) translate(56.17724609375 44.54296875)"/><use xlink:href="#o" transform="matrix(1,0,0,1,1653,517) translate(96.19384765625 44.54296875)"/><path d="M1072 512h224v64h-224z" stroke="#000" stroke-width="2" fill="#e5e5e5"/><use xlink:href="#q" transform="matrix(1,0,0,1,1077,517) translate(14.43359375 33.57421875)"/><use xlink:href="#r" transform="matrix(1,0,0,1,1077,517) translate(50.9345703125 33.57421875)"/><use xlink:href="#s" transform="matrix(1,0,0,1,1077,517) translate(117.16015625 33.57421875)"/><use xlink:href="#t" transform="matrix(1,0,0,1,1077,517) translate(156.1923828125 33.57421875)"/><path d="M1184 450v42.5" stroke="#000" stroke-width="2" fill="none"/><path d="M1185 450.03h-2V449h2z"/><path d="M1184 507.76l-4.64-14.26h9.28z" stroke="#000" stroke-width="2"/><path d="M1073.18 641h-49.38v43.5h-2V639h51.38zm112.82 0h-51.38v-2H1184v-61h2z" fill="#3aa6dd"/><path d="M1186 578.03h-2V577h2zM1022.8 699.76l-4.63-14.26h9.27z" fill="#3aa6dd"/><path d="M1022.8 703l-6-18.5h12zm-3.26-16.5l3.26 10.03 3.26-10.03z" fill="#3aa6dd"/><use xlink:href="#u" transform="matrix(1,0,0,1,1073.1784838153799,629.453125) translate(0 16.69921875)"/><path d="M1473 684.5h-2v-33.95h2zm0-55.05h-2V578h2z" fill="#3aa6dd"/><path d="M1473 578.03h-2V577h2zM1472 699.76l-4.64-14.26h9.28z" fill="#3aa6dd"/><path d="M1472 703l-6-18.5h12zm-3.26-16.5l3.26 10.03 3.26-10.03z" fill="#3aa6dd"/><use xlink:href="#u" transform="matrix(1,0,0,1,1441.27783203125,629.453125) translate(0 16.69921875)"/><path d="M1921.06 639v45.5h-2V641h-48.3v-2zm-111.75 0v2H1759v-63h2v61z" fill="#3aa6dd"/><path d="M1761 578.03h-2V577h2zM1920.06 699.76l-4.64-14.26h9.27z" fill="#3aa6dd"/><path d="M1920.06 703l-6-18.5h12zm-3.26-16.5l3.26 10.03 3.26-10.03z" fill="#3aa6dd"/><use xlink:href="#u" transform="matrix(1,0,0,1,1809.3066239947723,629.453125) translate(0 16.69921875)"/><path d="M1344.05 896h256v64h-256z" stroke="#000" stroke-width="2" fill="#e5e5e5"/><use xlink:href="#v" transform="matrix(1,0,0,1,1349.052640080793,901) translate(14.6220703125 33.57421875)"/><use xlink:href="#w" transform="matrix(1,0,0,1,1349.052640080793,901) translate(185.61328125 33.57421875)"/><use xlink:href="#x" transform="matrix(1,0,0,1,1349.052640080793,901) translate(199.9482421875 33.57421875)"/><path d="M1472.05 834v42.5" stroke="#000" stroke-width="2" fill="none"/><path d="M1473.05 834.03h-2V833h2z"/><path d="M1472.05 891.76l-4.63-14.26h9.27z" stroke="#000" stroke-width="2"/><path d="M1022.05 1024l112 64-112 64-112-64z" stroke="#000" stroke-width="2" fill="#e5e5e5"/><use xlink:href="#y" transform="matrix(1,0,0,1,915.052640080793,1029) translate(60.2286328125 49.88671875)"/><use xlink:href="#z" transform="matrix(1,0,0,1,915.052640080793,1029) translate(78.8614453125 49.88671875)"/><use xlink:href="#A" transform="matrix(1,0,0,1,915.052640080793,1029) translate(23.284785156250006 70.98046875)"/><use xlink:href="#n" transform="matrix(1,0,0,1,915.052640080793,1029) translate(107.84435546875001 70.98046875)"/><use xlink:href="#B" transform="matrix(1,0,0,1,915.052640080793,1029) translate(147.86095703125 70.98046875)"/><path d="M800.05 744v-40h448v40zM1248.05 704h448v40h-448zM1696.05 704h448v40h-448z" stroke="#000" stroke-width="2" fill="#fff"/><path d="M1248.05 1440h-448V744h448zM1248.05 744h448v696h-448zM2144.05 744v696h-448V744z" stroke="#000" stroke-width="2" fill="none"/><use xlink:href="#C" transform="matrix(1,0,0,1,800.052640080793,704) translate(163.50048828125 26.15234375)"/><use xlink:href="#D" transform="matrix(1,0,0,1,800.052640080793,704) translate(229.72607421875 26.15234375)"/><use xlink:href="#E" transform="matrix(1,0,0,1,1248.052640080793,704) translate(126.22499999999998 23.6)"/><use xlink:href="#F" transform="matrix(1,0,0,1,1248.052640080793,704) translate(262.875 23.6)"/><use xlink:href="#G" transform="matrix(1,0,0,1,1696.052640080793,704) translate(122.19999999999999 23.6)"/><use xlink:href="#F" transform="matrix(1,0,0,1,1696.052640080793,704) translate(266.9 23.6)"/><path d="M1298 544h42.5" stroke="#000" stroke-width="2" fill="none"/><path d="M1298.03 545H1297v-2h1.03z"/><path d="M1355.76 544l-14.26 4.64v-9.28z" stroke="#000" stroke-width="2"/><path d="M1586 544h42.5" stroke="#000" stroke-width="2" fill="none"/><path d="M1586.03 545H1585v-2h1.03z"/><path d="M1643.76 544l-14.26 4.64v-9.28z" stroke="#000" stroke-width="2"/><path d="M894.05 896h256v64h-256z" stroke="#000" stroke-width="2" fill="#e5e5e5"/><use xlink:href="#H" transform="matrix(1,0,0,1,899.052640080793,901) translate(29.16796875 33.57421875)"/><use xlink:href="#w" transform="matrix(1,0,0,1,899.052640080793,901) translate(171.0673828125 33.57421875)"/><use xlink:href="#x" transform="matrix(1,0,0,1,899.052640080793,901) translate(185.40234375 33.57421875)"/><path d="M1022.05 834v42.5" stroke="#000" stroke-width="2" fill="none"/><path d="M1023.05 834.03h-2V833h2z"/><path d="M1022.05 891.76l-4.63-14.26h9.27z" stroke="#000" stroke-width="2"/><path d="M1022.05 962v42.35" stroke="#000" stroke-width="2" fill="none"/><path d="M1023.05 962.03h-2V961h2z"/><path d="M1022.05 1019.6l-4.63-14.25h9.27z" stroke="#000" stroke-width="2"/><path d="M870.34 1089h-21.3v286h57.5v2h-59.5v-290h23.3zm36.7 0h-11.5v-2h11.5z"/><path d="M908.04 1088l1.75 1H907v-2h2.8zM921.82 1376l-14.27 4.64v-9.28z"/><path d="M925.05 1376l-18.5 6v-12zm-16.5 3.26l10.03-3.26-10.03-3.26z"/><use xlink:href="#I" transform="matrix(1,0,0,1,870.3370876576593,1077.453125) translate(0 16.69921875)"/><path d="M1529.6 1536c21.2 0 38.4 14.33 38.4 32s-17.2 32-38.4 32h-115.2c-21.2 0-38.4-14.33-38.4-32s17.2-32 38.4-32z" stroke="#000" stroke-width="2" fill="#c1e4f7"/><use xlink:href="#J" transform="matrix(1,0,0,1,1381,1541) translate(73.56689453125 33.57421875)"/><path d="M926.05 1216h192v64h-192z" stroke="#000" stroke-width="2" fill="#c1e4f7"/><path d="M945.25 1216v64m153.6-64v64" stroke="#000" stroke-width="2" fill="none"/><use xlink:href="#K" transform="matrix(1,0,0,1,955.052640080793,1221) translate(39.8681640625 33.15234375)"/><path d="M1023.05 1196.5h-2v-9.5h2zm0-30.6h-2v-11.75h2z"/><path d="M1023.05 1154.18h-2v-1.6l1 .57 1-.57zM1022.05 1211.76l-4.63-14.26h9.27z"/><path d="M1022.05 1215l-6-18.5h12zm-3.26-16.5l3.25 10.03 3.26-10.03z"/><use xlink:href="#L" transform="matrix(1,0,0,1,1006.192776799543,1165.911325669959) translate(0 16.69921875)"/><path d="M1079.65 768c21.2 0 38.4 14.33 38.4 32s-17.2 32-38.4 32h-115.2c-21.2 0-38.4-14.33-38.4-32s17.2-32 38.4-32z" stroke="#000" stroke-width="2" fill="#c1e4f7"/><use xlink:href="#M" transform="matrix(1,0,0,1,931.052640080793,773) translate(30.32470703125 33.57421875)"/><path d="M1079.65 1344c21.2 0 38.4 14.33 38.4 32s-17.2 32-38.4 32h-115.2c-21.2 0-38.4-14.33-38.4-32s17.2-32 38.4-32z" stroke="#000" stroke-width="2" fill="#c1e4f7"/><use xlink:href="#J" transform="matrix(1,0,0,1,931.052640080793,1349) translate(73.56689453125 33.57421875)"/><path d="M1022.05 1282v42.5" stroke="#000" stroke-width="2" fill="none"/><path d="M1023.05 1282.03h-2V1281h2z"/><path d="M1022.05 1339.76l-4.63-14.26h9.27z" stroke="#000" stroke-width="2"/><path d="M1529.65 768c21.2 0 38.4 14.33 38.4 32s-17.2 32-38.4 32h-115.2c-21.2 0-38.4-14.33-38.4-32s17.2-32 38.4-32z" stroke="#000" stroke-width="2" fill="#c1e4f7"/><use xlink:href="#N" transform="matrix(1,0,0,1,1381.052640080793,773) translate(14.5263671875 33.57421875)"/><path d="M1977.65 768c21.2 0 38.4 14.33 38.4 32s-17.2 32-38.4 32h-115.2c-21.2 0-38.4-14.33-38.4-32s17.2-32 38.4-32z" stroke="#000" stroke-width="2" fill="#c1e4f7"/><use xlink:href="#O" transform="matrix(1,0,0,1,1829.052640080793,773) translate(12.3203125 33.57421875)"/><path d="M1472.05 1024l112 64-112 64-112-64z" stroke="#000" stroke-width="2" fill="#e5e5e5"/><use xlink:href="#y" transform="matrix(1,0,0,1,1365.052640080793,1029) translate(33.19445312500001 64.63671875)"/><use xlink:href="#r" transform="matrix(1,0,0,1,1365.052640080793,1029) translate(51.82726562500001 64.63671875)"/><use xlink:href="#P" transform="matrix(1,0,0,1,1365.052640080793,1029) translate(118.05285156250001 64.63671875)"/><path d="M1472.05 962v42.35" stroke="#000" stroke-width="2" fill="none"/><path d="M1473.05 962.03h-2V961h2z"/><path d="M1472.05 1019.6l-4.63-14.25h9.27z" stroke="#000" stroke-width="2"/><path d="M1529.65 1344c21.2 0 38.4 14.33 38.4 32s-17.2 32-38.4 32h-115.2c-21.2 0-38.4-14.33-38.4-32s17.2-32 38.4-32z" stroke="#000" stroke-width="2" fill="#c1e4f7"/><use xlink:href="#J" transform="matrix(1,0,0,1,1381.052640080793,1349) translate(73.56689453125 33.57421875)"/><path d="M1315.9 1089h-18.85v286h59.5v2h-61.5v-290h20.85zm43.15 0h-17.94v-2h17.95z"/><path d="M1359.8 1089h-.77v-.43zm-.77-1.57v-.43h.76zM1371.82 1376l-14.27 4.64v-9.28z"/><path d="M1375.05 1376l-18.5 6v-12zm-16.5 3.26l10.03-3.26-10.03-3.26z"/><use xlink:href="#I" transform="matrix(1,0,0,1,1315.9040507358823,1077.453125) translate(0 16.69921875)"/><path d="M1376.05 1216h192v64h-192z" stroke="#000" stroke-width="2" fill="#c1e4f7"/><path d="M1395.25 1216v64m153.6-64v64" stroke="#000" stroke-width="2" fill="none"/><use xlink:href="#K" transform="matrix(1,0,0,1,1405.052640080793,1221) translate(39.8681640625 33.15234375)"/><path d="M1473.05 1196.5h-2v-10.48h2zm0-31.58h-2v-10.77h2z"/><path d="M1473.05 1154.18h-2v-1.6l1 .57 1-.57zM1472.05 1211.76l-4.63-14.26h9.27z"/><path d="M1472.05 1215l-6-18.5h12zm-3.26-16.5l3.25 10.03 3.26-10.03z"/><use xlink:href="#L" transform="matrix(1,0,0,1,1456.192776799543,1164.923146404483) translate(0 16.69921875)"/><path d="M1472.05 1282v42.5" stroke="#000" stroke-width="2" fill="none"/><path d="M1473.05 1282.03h-2V1281h2z"/><path d="M1472.05 1339.76l-4.63-14.26h9.27z" stroke="#000" stroke-width="2"/><path d="M1824.05 896h192v64h-192z" stroke="#000" stroke-width="2" fill="#c1e4f7"/><path d="M1843.25 896v64m153.6-64v64" stroke="#000" stroke-width="2" fill="none"/><use xlink:href="#K" transform="matrix(1,0,0,1,1853.052640080793,901) translate(39.8681640625 33.15234375)"/><path d="M1920.05 834v42.5" stroke="#000" stroke-width="2" fill="none"/><path d="M1921.05 834.03h-2V833h2z"/><path d="M1920.05 891.76l-4.63-14.26h9.27z" stroke="#000" stroke-width="2"/><path d="M1977.65 1024c21.2 0 38.4 14.33 38.4 32s-17.2 32-38.4 32h-115.2c-21.2 0-38.4-14.33-38.4-32s17.2-32 38.4-32z" stroke="#000" stroke-width="2" fill="#c1e4f7"/><use xlink:href="#J" transform="matrix(1,0,0,1,1829.052640080793,1029) translate(73.56689453125 33.57421875)"/><path d="M1920.05 962v42.5" stroke="#000" stroke-width="2" fill="none"/><path d="M1921.05 962.03h-2V961h2z"/><path d="M1920.05 1019.76l-4.63-14.26h9.27z" stroke="#000" stroke-width="2"/><path d="M537.6 384c21.2 0 38.4 14.33 38.4 32s-17.2 32-38.4 32H422.4c-21.2 0-38.4-14.33-38.4-32s17.2-32 38.4-32z" stroke="#000" stroke-width="2" fill="#c1e4f7"/><use xlink:href="#Q" transform="matrix(1,0,0,1,389,389) translate(63.8681640625 33.57421875)"/><path d="M480 512l96 64-96 64-96-64z" stroke="#000" stroke-width="2" fill="#e5e5e5"/><use xlink:href="#y" transform="matrix(1,0,0,1,389,517) translate(50.30724609375 64.63671875)"/><use xlink:href="#P" transform="matrix(1,0,0,1,389,517) translate(68.94005859375 64.63671875)"/><path d="M480 450v42.3" stroke="#000" stroke-width="2" fill="none"/><path d="M481 450.03h-2V449h2z"/><path d="M480 507.56l-4.64-14.26h9.28z" stroke="#000" stroke-width="2"/><path d="M641 993h-45.5v-2H639V577h-22.52v-2H641zm-62.2-416v-2h8.63v2z"/><path d="M578.83 577h-2.53l1.5-1-1.5-1h2.53zM594.5 996.64L580.24 992l14.26-4.64z"/><path d="M595.5 998l-18.5-6 18.5-6zm-12.03-6l10.03 3.26v-6.52z"/><g><use xlink:href="#R" transform="matrix(1,0,0,1,587.4262670954746,565.453125) translate(0 16.69921875)"/></g><path d="M537.6 960c21.2 0 38.4 14.33 38.4 32s-17.2 32-38.4 32H422.4c-21.2 0-38.4-14.33-38.4-32s17.2-32 38.4-32z" stroke="#000" stroke-width="2" fill="#c1e4f7"/><g><use xlink:href="#J" transform="matrix(1,0,0,1,389,965.0000000000001) translate(73.56689453125 33.57421875)"/></g><path d="M400 704h160v64H400z" stroke="#000" stroke-width="2" fill="#e5e5e5"/><g><use xlink:href="#S" transform="matrix(1,0,0,1,405,709) translate(20.13427734375 33.57421875)"/><use xlink:href="#e" transform="matrix(1,0,0,1,405,709) translate(70.89111328125 33.57421875)"/></g><path d="M481 684.5h-2v-8.35h2zm0-29.44h-2V642.2h2z"/><path d="M481 642.23h-2v-1.7l1 .67 1-.66zM480 699.76l-4.64-14.26h9.28z"/><path d="M480 703l-6-18.5h12zm-3.26-16.5l3.26 10.03 3.26-10.03z"/><g><use xlink:href="#T" transform="matrix(1,0,0,1,468.451171875,655.0571781044093) translate(0 16.69921875)"/></g><path d="M128 704h240v64H128z" fill="none"/><path d="M368 768c-2.2 0-4-1.8-4-4v-24c0-2.2-1.8-4-4-4 2.2 0 4-1.8 4-4v-24c0-2.2 1.8-4 4-4" stroke="#000" stroke-width="2" fill="none"/><g><use xlink:href="#U" transform="matrix(1,0,0,1,133,709) translate(45.13671875 22.60546875)"/><use xlink:href="#g" transform="matrix(1,0,0,1,133,709) translate(129.2392578125 22.60546875)"/><use xlink:href="#h" transform="matrix(1,0,0,1,133,709) translate(159.025390625 22.60546875)"/><use xlink:href="#i" transform="matrix(1,0,0,1,133,709) translate(59.919921875 43.69921875)"/><use xlink:href="#V" transform="matrix(1,0,0,1,133,709) translate(106.51953125 43.69921875)"/><use xlink:href="#g" transform="matrix(1,0,0,1,133,709) translate(149.181640625 43.69921875)"/><use xlink:href="#k" transform="matrix(1,0,0,1,133,709) translate(178.9677734375 43.69921875)"/></g><path d="M400 832h160v64H400z" stroke="#000" stroke-width="2" fill="#e5e5e5"/><g><use xlink:href="#W" transform="matrix(1,0,0,1,405,837) translate(13.2744140625 33.57421875)"/><use xlink:href="#w" transform="matrix(1,0,0,1,405,837) translate(90.9609375 33.57421875)"/><use xlink:href="#x" transform="matrix(1,0,0,1,405,837) translate(105.2958984375 33.57421875)"/></g><path d="M480 770v42.5" stroke="#000" stroke-width="2" fill="none"/><path d="M481 770.03h-2V769h2z"/><path d="M480 827.76l-4.64-14.26h9.28z" stroke="#000" stroke-width="2"/><path d="M480 898v42.5" stroke="#000" stroke-width="2" fill="none"/><path d="M481 898.03h-2V897h2z"/><path d="M480 955.76l-4.64-14.26h9.28z" stroke="#000" stroke-width="2"/><path d="M1473 1516.5h-2l.04-23.3h2zm.05-44.38h-2V1442h2z"/><path d="M1473.05 1442.03h-2V1441h2zM1472 1531.76l-4.64-14.26h9.28z"/><path d="M1472 1535l-6-18.5h12zm-3.26-16.5l3.26 10.03 3.26-10.03z"/><g><use xlink:href="#X" transform="matrix(1,0,0,1,1400.347073674543,1472.1197916666545) translate(0 16.69921875)"/><use xlink:href="#Y" transform="matrix(1,0,0,1,1400.347073674543,1472.1197916666545) translate(58.7197265625 16.69921875)"/><use xlink:href="#Z" transform="matrix(1,0,0,1,1400.347073674543,1472.1197916666545) translate(95.7744140625 16.69921875)"/></g><path d="M832 64h480v64H832z" stroke="#000" stroke-opacity="0" stroke-width="2" fill="#fff" fill-opacity="0"/><g><use xlink:href="#aa" transform="matrix(1,0,0,1,837,69) translate(23.630750868055628 35.07074652777777)"/><use xlink:href="#ab" transform="matrix(1,0,0,1,837,69) translate(127.19498697916671 35.07074652777777)"/><use xlink:href="#ac" transform="matrix(1,0,0,1,837,69) translate(195.09993489583337 35.07074652777777)"/><use xlink:href="#ad" transform="matrix(1,0,0,1,837,69) translate(326.24891493055554 35.07074652777777)"/></g><path d="M832 128h480v64H832z" stroke="#000" stroke-opacity="0" stroke-width="2" fill="#fff" fill-opacity="0"/><g><use xlink:href="#ae" transform="matrix(1,0,0,1,837,133) translate(96.77159288194451 34.32248263888888)"/><use xlink:href="#af" transform="matrix(1,0,0,1,837,133) translate(209.20203993055554 34.32248263888888)"/><use xlink:href="#ag" transform="matrix(1,0,0,1,837,133) translate(301.01822916666663 34.32248263888888)"/></g><defs><path d="M362-157h690V0H169v-1456h193v1299" id="ah"/><path d="M584 20C278 26 81-227 91-551c10-320 175-545 491-551 308-5 503 247 494 573-9 322-175 543-492 549zm-2-970c-208 0-305 185-305 421 0 216 106 398 307 398 211 0 307-186 307-420 0-214-109-399-309-399" id="ai"/><path d="M561-1102c238-4 403 126 403 351v498c0 99 13 178 38 237V0H808c-11-21-19-59-26-114C696-25 593 20 474 20c-199 0-368-130-365-320 4-251 214-359 490-356h180v-85c-1-135-86-212-229-212-115 0-232 67-233 171H131c20-205 206-316 430-320zM294-326c0 117 90 185 207 185 122 0 239-75 278-162v-222H634c-227 0-340 66-340 199" id="aj"/><path d="M520 20C244 20 95-247 95-550c0-298 151-550 427-552 127 0 227 43 301 130v-564h185V0H838l-9-116C755-25 652 20 520 20zm48-965c-210 0-288 177-288 416 0 218 87 392 286 392 117 0 203-53 257-158v-497c-55-102-140-153-255-153" id="ak"/><path d="M341 0H156v-1082h185V0zm-91-1264c-68 0-108-42-109-105 0-62 41-107 109-107s110 44 110 107-42 105-110 105" id="al"/><path d="M589-945c-131 0-219 81-264 174V0H140v-1082h175l6 136c83-104 191-156 324-156 229 0 346 129 346 387V0H806v-716c-2-153-65-229-217-229" id="am"/><path d="M521 20C240 20 96-239 96-550c0-303 147-552 427-552 132 0 235 47 309 140l9-120h169V-26c4 277-183 454-459 452-165-1-334-81-400-187l96-111c79 98 176 147 291 147 180 1 288-109 286-290v-93C750-23 649 20 521 20zm48-965c-209 0-287 178-287 416 0 217 86 392 285 392 117 0 202-53 257-159v-494c-57-103-142-155-255-155" id="an"/><g id="a"><use transform="matrix(0.0087890625,0,0,0.0087890625,0,0)" xlink:href="#ah"/><use transform="matrix(0.0087890625,0,0,0.0087890625,9.685546875,0)" xlink:href="#ai"/><use transform="matrix(0.0087890625,0,0,0.0087890625,19.951171875,0)" xlink:href="#aj"/><use transform="matrix(0.0087890625,0,0,0.0087890625,29.7421875,0)" xlink:href="#ak"/><use transform="matrix(0.0087890625,0,0,0.0087890625,39.8935546875,0)" xlink:href="#al"/><use transform="matrix(0.0087890625,0,0,0.0087890625,44.26171875,0)" xlink:href="#am"/><use transform="matrix(0.0087890625,0,0,0.0087890625,54.193359375,0)" xlink:href="#an"/></g><path d="M1216-1011c-1 297-202 441-512 441H361V0H169v-1456h537c297-6 510 164 510 445zm-192 2c1-178-126-288-307-289H361v571h345c196 1 318-92 318-282" id="ao"/><path d="M599-131c141 0 220-65 285-146l113 88C906-50 770 20 589 20 281 21 93-214 93-545c0-223 93-397 233-485 74-48 154-72 240-72 300 2 449 218 445 537v77H278c0 197 129 357 321 357zm227-509c-3-180-88-310-260-310-170 0-264 140-282 310h542" id="ap"/><g id="b"><use transform="matrix(0.0087890625,0,0,0.0087890625,0,0)" xlink:href="#ao"/><use transform="matrix(0.0087890625,0,0,0.0087890625,11.2587890625,0)" xlink:href="#aj"/><use transform="matrix(0.0087890625,0,0,0.0087890625,21.0498046875,0)" xlink:href="#am"/><use transform="matrix(0.0087890625,0,0,0.0087890625,30.9814453125,0)" xlink:href="#ap"/></g><path d="M973-380H363L226 0H28l556-1456h168L1309 0h-197zM421-538h495l-248-681" id="aq"/><path d="M1240-945c-141 0-250 95-250 227V0H804v-709c0-157-77-236-231-236-121 0-204 52-249 155V0H139v-1082h175l5 120c79-93 186-140 321-140 151 0 254 58 309 174 69-98 181-174 345-174 237 0 362 126 362 377V0h-185v-714c-2-159-67-231-231-231" id="ar"/><path d="M456 20C285 20 205-92 206-268v-671H9v-143h197v-262h185v262h202v143H391v671c-9 125 92 149 207 118V0c-49 13-96 20-142 20" id="as"/><g id="c"><use transform="matrix(0.0087890625,0,0,0.0087890625,0,0)" xlink:href="#aq"/><use transform="matrix(0.0087890625,0,0,0.0087890625,11.7421875,0)" xlink:href="#am"/><use transform="matrix(0.0087890625,0,0,0.0087890625,21.673828125,0)" xlink:href="#al"/><use transform="matrix(0.0087890625,0,0,0.0087890625,26.0419921875,0)" xlink:href="#ar"/><use transform="matrix(0.0087890625,0,0,0.0087890625,41.818359375,0)" xlink:href="#aj"/><use transform="matrix(0.0087890625,0,0,0.0087890625,51.609375,0)" xlink:href="#as"/><use transform="matrix(0.0087890625,0,0,0.0087890625,57.4892578125,0)" xlink:href="#al"/><use transform="matrix(0.0087890625,0,0,0.0087890625,61.857421875,0)" xlink:href="#ai"/><use transform="matrix(0.0087890625,0,0,0.0087890625,72.123046875,0)" xlink:href="#am"/></g><path d="M631-137c179 0 314-70 314-231 0-71-25-127-75-166s-141-77-272-115c-165-47-285-106-360-175s-112-154-112-255c0-245 231-397 495-397 206 0 369 89 449 218 43 68 65 142 65 223H942c0-184-129-283-321-283-172 0-299 76-301 236 0 59 26 109 76 150s135 78 256 113c205 59 345 116 436 256 35 53 50 119 50 193-2 256-231 398-507 390C333 12 90-129 80-422h193c0 187 160 285 358 285" id="at"/><g id="d"><use transform="matrix(0.0087890625,0,0,0.0087890625,0,0)" xlink:href="#at"/><use transform="matrix(0.0087890625,0,0,0.0087890625,10.6787109375,0)" xlink:href="#ap"/><use transform="matrix(0.0087890625,0,0,0.0087890625,20.21484375,0)" xlink:href="#as"/></g><path d="M341 0H156v-1536h185V0" id="au"/><g id="e"><use transform="matrix(0.0087890625,0,0,0.0087890625,0,0)" xlink:href="#au"/><use transform="matrix(0.0087890625,0,0,0.0087890625,4.3681640625,0)" xlink:href="#ai"/><use transform="matrix(0.0087890625,0,0,0.0087890625,14.6337890625,0)" xlink:href="#aj"/><use transform="matrix(0.0087890625,0,0,0.0087890625,24.4248046875,0)" xlink:href="#ak"/><use transform="matrix(0.0087890625,0,0,0.0087890625,34.576171875,0)" xlink:href="#al"/><use transform="matrix(0.0087890625,0,0,0.0087890625,38.9443359375,0)" xlink:href="#am"/><use transform="matrix(0.0087890625,0,0,0.0087890625,48.8759765625,0)" xlink:href="#an"/></g><g id="f"><use transform="matrix(0.0087890625,0,0,0.0087890625,0,0)" xlink:href="#aq"/><use transform="matrix(0.0087890625,0,0,0.0087890625,11.7421875,0)" xlink:href="#ak"/><use transform="matrix(0.0087890625,0,0,0.0087890625,21.8935546875,0)" xlink:href="#ak"/><use transform="matrix(0.0087890625,0,0,0.0087890625,32.044921875,0)" xlink:href="#al"/><use transform="matrix(0.0087890625,0,0,0.0087890625,36.4130859375,0)" xlink:href="#am"/><use transform="matrix(0.0087890625,0,0,0.0087890625,46.3447265625,0)" xlink:href="#an"/></g><path d="M589-945c-131 0-219 81-264 174V0H140v-1536h185v585c82-101 189-151 320-151 229 0 346 129 346 387V0H806v-716c-2-153-65-229-217-229" id="av"/><g id="g"><use transform="matrix(0.0087890625,0,0,0.0087890625,0,0)" xlink:href="#as"/><use transform="matrix(0.0087890625,0,0,0.0087890625,5.8798828125,0)" xlink:href="#av"/><use transform="matrix(0.0087890625,0,0,0.0087890625,15.7939453125,0)" xlink:href="#ap"/></g><g id="h"><use transform="matrix(0.0087890625,0,0,0.0087890625,0,0)" xlink:href="#au"/><use transform="matrix(0.0087890625,0,0,0.0087890625,4.3681640625,0)" xlink:href="#ai"/><use transform="matrix(0.0087890625,0,0,0.0087890625,14.6337890625,0)" xlink:href="#aj"/><use transform="matrix(0.0087890625,0,0,0.0087890625,24.4248046875,0)" xlink:href="#ak"/><use transform="matrix(0.0087890625,0,0,0.0087890625,34.576171875,0)" xlink:href="#al"/><use transform="matrix(0.0087890625,0,0,0.0087890625,38.9443359375,0)" xlink:href="#am"/><use transform="matrix(0.0087890625,0,0,0.0087890625,48.8759765625,0)" xlink:href="#an"/></g><path d="M277-555c0 244 77 420 297 424 127 2 249-93 255-210h175C980-127 805 20 574 20 258 20 81-222 92-562c11-319 164-533 481-540 237-5 426 165 431 392H829c-7-133-115-242-256-240-209 4-296 166-296 395" id="aw"/><path d="M538-131c121 0 232-49 232-156 0-50-20-88-56-117-73-60-334-92-420-143-92-55-162-110-162-238 0-190 192-317 400-317 223 0 414 129 413 338H759c0-108-110-186-227-186-119 0-215 53-215 159 0 45 18 78 53 101 76 52 331 90 416 139 98 57 169 115 169 251C955-92 760 20 538 20c-176 0-314-68-386-174-38-55-57-115-57-179h185c6 129 116 202 258 202" id="ax"/><g id="i"><use transform="matrix(0.0087890625,0,0,0.0087890625,0,0)" xlink:href="#aw"/><use transform="matrix(0.0087890625,0,0,0.0087890625,9.421875,0)" xlink:href="#au"/><use transform="matrix(0.0087890625,0,0,0.0087890625,13.7900390625,0)" xlink:href="#aj"/><use transform="matrix(0.0087890625,0,0,0.0087890625,23.5810546875,0)" xlink:href="#ax"/><use transform="matrix(0.0087890625,0,0,0.0087890625,32.8623046875,0)" xlink:href="#ax"/></g><g id="j"><use transform="matrix(0.0087890625,0,0,0.0087890625,0,0)" xlink:href="#as"/><use transform="matrix(0.0087890625,0,0,0.0087890625,5.7041015625,0)" xlink:href="#ai"/></g><path d="M634-1102c292 0 422 254 422 573 0 298-143 547-420 549-137 0-242-48-317-145L310 0H140v-1536h185v573c75-93 178-139 309-139zm-44 965c207 0 281-175 281-413 0-224-79-395-283-395-122 0-210 57-263 170v468c57 113 145 170 265 170" id="ay"/><path d="M494-271l252-811h198L509 167C425 381 299 474 84 421V271c167 16 242-37 283-173l41-110L22-1082h202" id="az"/><g id="k"><use transform="matrix(0.0087890625,0,0,0.0087890625,0,0)" xlink:href="#ay"/><use transform="matrix(0.0087890625,0,0,0.0087890625,10.0986328125,0)" xlink:href="#ai"/><use transform="matrix(0.0087890625,0,0,0.0087890625,20.3642578125,0)" xlink:href="#ak"/><use transform="matrix(0.0087890625,0,0,0.0087890625,30.515625,0)" xlink:href="#az"/></g><path d="M491 20c-241-1-355-148-355-398v-704h185v699c0 164 67 246 200 246 141 0 235-53 282-158v-787h185V0H812l-4-107C736-22 630 20 491 20" id="aA"/><g id="l"><use transform="matrix(0.0087890625,0,0,0.0087890625,0,0)" xlink:href="#ar"/><use transform="matrix(0.0087890625,0,0,0.0087890625,15.7763671875,0)" xlink:href="#al"/><use transform="matrix(0.0087890625,0,0,0.0087890625,20.14453125,0)" xlink:href="#am"/><use transform="matrix(0.0087890625,0,0,0.0087890625,30.076171875,0)" xlink:href="#al"/><use transform="matrix(0.0087890625,0,0,0.0087890625,34.4443359375,0)" xlink:href="#ar"/><use transform="matrix(0.0087890625,0,0,0.0087890625,50.220703125,0)" xlink:href="#aA"/><use transform="matrix(0.0087890625,0,0,0.0087890625,60.1435546875,0)" xlink:href="#ar"/></g><g id="m"><use transform="matrix(0.0087890625,0,0,0.0087890625,0,0)" xlink:href="#aj"/><use transform="matrix(0.0087890625,0,0,0.0087890625,9.791015625,0)" xlink:href="#am"/><use transform="matrix(0.0087890625,0,0,0.0087890625,19.72265625,0)" xlink:href="#al"/><use transform="matrix(0.0087890625,0,0,0.0087890625,24.0908203125,0)" xlink:href="#ar"/><use transform="matrix(0.0087890625,0,0,0.0087890625,39.8671875,0)" xlink:href="#aj"/><use transform="matrix(0.0087890625,0,0,0.0087890625,49.658203125,0)" xlink:href="#as"/><use transform="matrix(0.0087890625,0,0,0.0087890625,55.5380859375,0)" xlink:href="#al"/><use transform="matrix(0.0087890625,0,0,0.0087890625,59.90625,0)" xlink:href="#ai"/><use transform="matrix(0.0087890625,0,0,0.0087890625,70.171875,0)" xlink:href="#am"/></g><g id="n"><use transform="matrix(0.0087890625,0,0,0.0087890625,0,0)" xlink:href="#as"/><use transform="matrix(0.0087890625,0,0,0.0087890625,5.8798828125,0)" xlink:href="#al"/><use transform="matrix(0.0087890625,0,0,0.0087890625,10.248046875,0)" xlink:href="#ar"/><use transform="matrix(0.0087890625,0,0,0.0087890625,26.0244140625,0)" xlink:href="#ap"/></g><g id="o"><use transform="matrix(0.0087890625,0,0,0.0087890625,0,0)" xlink:href="#as"/><use transform="matrix(0.0087890625,0,0,0.0087890625,5.8798828125,0)" xlink:href="#al"/><use transform="matrix(0.0087890625,0,0,0.0087890625,10.248046875,0)" xlink:href="#ar"/><use transform="matrix(0.0087890625,0,0,0.0087890625,26.0244140625,0)" xlink:href="#ap"/><use transform="matrix(0.0087890625,0,0,0.0087890625,35.560546875,0)" xlink:href="#ai"/><use transform="matrix(0.0087890625,0,0,0.0087890625,45.826171875,0)" xlink:href="#aA"/><use transform="matrix(0.0087890625,0,0,0.0087890625,55.7490234375,0)" xlink:href="#as"/></g><path d="M503-687l240-395h216L605-547 970 0H756L506-405 256 0H41l365-547-354-535h214" id="aB"/><g id="p"><use transform="matrix(0.0087890625,0,0,0.0087890625,0,0)" xlink:href="#ar"/><use transform="matrix(0.0087890625,0,0,0.0087890625,15.7763671875,0)" xlink:href="#aj"/><use transform="matrix(0.0087890625,0,0,0.0087890625,25.5673828125,0)" xlink:href="#aB"/><use transform="matrix(0.0087890625,0,0,0.0087890625,34.48828125,0)" xlink:href="#al"/><use transform="matrix(0.0087890625,0,0,0.0087890625,38.8564453125,0)" xlink:href="#ar"/><use transform="matrix(0.0087890625,0,0,0.0087890625,54.6328125,0)" xlink:href="#aA"/><use transform="matrix(0.0087890625,0,0,0.0087890625,64.5556640625,0)" xlink:href="#ar"/></g><g id="q"><use transform="matrix(0.0087890625,0,0,0.0087890625,0,0)" xlink:href="#aq"/><use transform="matrix(0.0087890625,0,0,0.0087890625,11.7421875,0)" xlink:href="#ak"/><use transform="matrix(0.0087890625,0,0,0.0087890625,21.8935546875,0)" xlink:href="#ak"/></g><path d="M1098-255l208-827h185L1176 0h-150L763-820 507 0H357L43-1082h184l213 810 252-810h149" id="aC"/><g id="r"><use transform="matrix(0.0087890625,0,0,0.0087890625,0,0)" xlink:href="#aC"/><use transform="matrix(0.0087890625,0,0,0.0087890625,13.5263671875,0)" xlink:href="#al"/><use transform="matrix(0.0087890625,0,0,0.0087890625,17.89453125,0)" xlink:href="#am"/><use transform="matrix(0.0087890625,0,0,0.0087890625,27.826171875,0)" xlink:href="#ak"/><use transform="matrix(0.0087890625,0,0,0.0087890625,37.9775390625,0)" xlink:href="#ai"/><use transform="matrix(0.0087890625,0,0,0.0087890625,48.2431640625,0)" xlink:href="#aC"/></g><g id="s"><use transform="matrix(0.0087890625,0,0,0.0087890625,0,0)" xlink:href="#au"/><use transform="matrix(0.0087890625,0,0,0.0087890625,4.3681640625,0)" xlink:href="#ai"/><use transform="matrix(0.0087890625,0,0,0.0087890625,14.6337890625,0)" xlink:href="#aj"/><use transform="matrix(0.0087890625,0,0,0.0087890625,24.4248046875,0)" xlink:href="#ak"/></g><path d="M497-251l268-831h189L566 0H425L33-1082h189" id="aD"/><g id="t"><use transform="matrix(0.0087890625,0,0,0.0087890625,0,0)" xlink:href="#ap"/><use transform="matrix(0.0087890625,0,0,0.0087890625,9.421875,0)" xlink:href="#aD"/><use transform="matrix(0.0087890625,0,0,0.0087890625,18.0263671875,0)" xlink:href="#ap"/><use transform="matrix(0.0087890625,0,0,0.0087890625,27.5625,0)" xlink:href="#am"/><use transform="matrix(0.0087890625,0,0,0.0087890625,37.494140625,0)" xlink:href="#as"/></g><path d="M663-916c-163-27-288 18-338 148V0H140v-1082h180l3 125c61-97 147-145 258-145 36 0 63 5 82 14v172" id="aE"/><g id="u"><use transform="matrix(0.0087890625,0,0,0.0087890625,0,0)" xlink:href="#as"/><use transform="matrix(0.0087890625,0,0,0.0087890625,5.8798828125,0)" xlink:href="#aE"/><use transform="matrix(0.0087890625,0,0,0.0087890625,11.970703125,0)" xlink:href="#al"/><use transform="matrix(0.0087890625,0,0,0.0087890625,16.3388671875,0)" xlink:href="#an"/><use transform="matrix(0.0087890625,0,0,0.0087890625,26.4375,0)" xlink:href="#an"/><use transform="matrix(0.0087890625,0,0,0.0087890625,36.5361328125,0)" xlink:href="#ap"/><use transform="matrix(0.0087890625,0,0,0.0087890625,46.072265625,0)" xlink:href="#aE"/><use transform="matrix(0.0087890625,0,0,0.0087890625,52.1630859375,0)" xlink:href="#ax"/></g><path d="M417-1456L893-268l476-1188h249V0h-192c-4-403 4-794 18-1179L966 0H819L342-1176c15 384 23 773 19 1176H169v-1456h248" id="aF"/><path d="M1175-1298H707V0H516v-1298H49v-158h1126v158" id="aG"/><path d="M703-1476c426 0 599 333 586 795-11 408-187 701-584 701-422 0-587-333-587-793 0-282 106-507 280-617 89-56 190-86 305-86zm2 1333c312 0 393-279 393-632 0-308-116-536-395-536-269 0-394 232-394 523v107c-4 298 123 538 396 538" id="aH"/><g id="v"><use transform="matrix(0.0087890625,0,0,0.0087890625,0,0)" xlink:href="#al"/><use transform="matrix(0.0087890625,0,0,0.0087890625,4.3681640625,0)" xlink:href="#ax"/><use transform="matrix(0.0087890625,0,0,0.0087890625,13.6494140625,0)" xlink:href="#aF"/><use transform="matrix(0.0087890625,0,0,0.0087890625,29.3642578125,0)" xlink:href="#al"/><use transform="matrix(0.0087890625,0,0,0.0087890625,33.732421875,0)" xlink:href="#am"/><use transform="matrix(0.0087890625,0,0,0.0087890625,43.6640625,0)" xlink:href="#al"/><use transform="matrix(0.0087890625,0,0,0.0087890625,48.0322265625,0)" xlink:href="#ar"/><use transform="matrix(0.0087890625,0,0,0.0087890625,63.80859375,0)" xlink:href="#aA"/><use transform="matrix(0.0087890625,0,0,0.0087890625,73.7314453125,0)" xlink:href="#ar"/><use transform="matrix(0.0087890625,0,0,0.0087890625,89.5078125,0)" xlink:href="#aG"/><use transform="matrix(0.0087890625,0,0,0.0087890625,100.248046875,0)" xlink:href="#al"/><use transform="matrix(0.0087890625,0,0,0.0087890625,104.6162109375,0)" xlink:href="#ar"/><use transform="matrix(0.0087890625,0,0,0.0087890625,120.392578125,0)" xlink:href="#ap"/><use transform="matrix(0.0087890625,0,0,0.0087890625,129.9287109375,0)" xlink:href="#aH"/><use transform="matrix(0.0087890625,0,0,0.0087890625,142.3037109375,0)" xlink:href="#aD"/><use transform="matrix(0.0087890625,0,0,0.0087890625,150.908203125,0)" xlink:href="#ap"/><use transform="matrix(0.0087890625,0,0,0.0087890625,160.4443359375,0)" xlink:href="#aE"/></g><path d="M986-814H152v-161h834v161zm0 415H152v-160h834v160" id="aI"/><use transform="matrix(0.0087890625,0,0,0.0087890625,0,0)" xlink:href="#aI" id="w"/><g id="x"><use transform="matrix(0.0087890625,0,0,0.0087890625,0,0)" xlink:href="#as"/><use transform="matrix(0.0087890625,0,0,0.0087890625,5.8798828125,0)" xlink:href="#aE"/><use transform="matrix(0.0087890625,0,0,0.0087890625,11.970703125,0)" xlink:href="#aA"/><use transform="matrix(0.0087890625,0,0,0.0087890625,21.8935546875,0)" xlink:href="#ap"/></g><path d="M375 0H183v-1456h192V0" id="aJ"/><g id="y"><use transform="matrix(0.0087890625,0,0,0.0087890625,0,0)" xlink:href="#aJ"/><use transform="matrix(0.0087890625,0,0,0.0087890625,4.8955078125,0)" xlink:href="#ax"/></g><g id="z"><use transform="matrix(0.0087890625,0,0,0.0087890625,0,0)" xlink:href="#ar"/><use transform="matrix(0.0087890625,0,0,0.0087890625,15.7763671875,0)" xlink:href="#al"/><use transform="matrix(0.0087890625,0,0,0.0087890625,20.14453125,0)" xlink:href="#am"/><use transform="matrix(0.0087890625,0,0,0.0087890625,30.076171875,0)" xlink:href="#al"/><use transform="matrix(0.0087890625,0,0,0.0087890625,34.4443359375,0)" xlink:href="#ar"/><use transform="matrix(0.0087890625,0,0,0.0087890625,50.220703125,0)" xlink:href="#aA"/><use transform="matrix(0.0087890625,0,0,0.0087890625,60.1435546875,0)" xlink:href="#ar"/></g><g id="A"><use transform="matrix(0.0087890625,0,0,0.0087890625,0,0)" xlink:href="#aj"/><use transform="matrix(0.0087890625,0,0,0.0087890625,9.791015625,0)" xlink:href="#am"/><use transform="matrix(0.0087890625,0,0,0.0087890625,19.72265625,0)" xlink:href="#al"/><use transform="matrix(0.0087890625,0,0,0.0087890625,24.0908203125,0)" xlink:href="#ar"/><use transform="matrix(0.0087890625,0,0,0.0087890625,39.8671875,0)" xlink:href="#aj"/><use transform="matrix(0.0087890625,0,0,0.0087890625,49.658203125,0)" xlink:href="#as"/><use transform="matrix(0.0087890625,0,0,0.0087890625,55.5380859375,0)" xlink:href="#al"/><use transform="matrix(0.0087890625,0,0,0.0087890625,59.90625,0)" xlink:href="#ai"/><use transform="matrix(0.0087890625,0,0,0.0087890625,70.171875,0)" xlink:href="#am"/></g><path d="M486-1476c244 0 401 141 400 380 0 117-54 232-162 345L615-643c-49 54-73 132-73 233H357c6-184 32-232 129-341 78-87 215-190 215-339 0-139-76-224-215-224-128 0-227 74-226 199H75c0-220 182-361 411-361zM458 11c-68 0-108-41-109-104 0-63 41-106 109-106s110 43 110 106S526 11 458 11" id="aK"/><g id="B"><use transform="matrix(0.0087890625,0,0,0.0087890625,0,0)" xlink:href="#ai"/><use transform="matrix(0.0087890625,0,0,0.0087890625,10.1337890625,0)" xlink:href="#aD"/><use transform="matrix(0.0087890625,0,0,0.0087890625,18.73828125,0)" xlink:href="#ap"/><use transform="matrix(0.0087890625,0,0,0.0087890625,28.2744140625,0)" xlink:href="#aE"/><use transform="matrix(0.0087890625,0,0,0.0087890625,34.365234375,0)" xlink:href="#aK"/></g><g id="C"><use transform="matrix(0.0087890625,0,0,0.0087890625,0,0)" xlink:href="#aC"/><use transform="matrix(0.0087890625,0,0,0.0087890625,13.5263671875,0)" xlink:href="#al"/><use transform="matrix(0.0087890625,0,0,0.0087890625,17.89453125,0)" xlink:href="#am"/><use transform="matrix(0.0087890625,0,0,0.0087890625,27.826171875,0)" xlink:href="#ak"/><use transform="matrix(0.0087890625,0,0,0.0087890625,37.9775390625,0)" xlink:href="#ai"/><use transform="matrix(0.0087890625,0,0,0.0087890625,48.2431640625,0)" xlink:href="#aC"/></g><g id="D"><use transform="matrix(0.0087890625,0,0,0.0087890625,0,0)" xlink:href="#ai"/><use transform="matrix(0.0087890625,0,0,0.0087890625,10.265625,0)" xlink:href="#am"/><use transform="matrix(0.0087890625,0,0,0.0087890625,20.197265625,0)" xlink:href="#au"/><use transform="matrix(0.0087890625,0,0,0.0087890625,24.5654296875,0)" xlink:href="#ai"/><use transform="matrix(0.0087890625,0,0,0.0087890625,34.8310546875,0)" xlink:href="#aj"/><use transform="matrix(0.0087890625,0,0,0.0087890625,44.6220703125,0)" xlink:href="#ak"/></g><path d="M240 0l2-218c-23 76-54 145-80 218h-23L58-218 59 0H30v-248h44l77 211c21-75 51-140 76-211h43V0h-30" id="aL"/><path d="M33 0v-248h34V0H33" id="aM"/><path d="M190 0L58-211 59 0H30v-248h39L202-35l-2-213h31V0h-41" id="aN"/><path d="M232-93c-1 65-40 97-104 97C67 4 28-28 28-90v-158h33c8 89-33 224 67 224 102 0 64-133 71-224h33v155" id="aO"/><path d="M-5 72V49h209v23H-5" id="aP"/><path d="M127-220V0H93v-220H8v-28h204v28h-85" id="aQ"/><path d="M30 0v-248h187v28H63v79h144v27H63v87h162V0H30" id="aR"/><g id="E"><use transform="matrix(0.05,0,0,0.05,0,0)" xlink:href="#aL"/><use transform="matrix(0.05,0,0,0.05,14.950000000000001,0)" xlink:href="#aM"/><use transform="matrix(0.05,0,0,0.05,19.950000000000003,0)" xlink:href="#aN"/><use transform="matrix(0.05,0,0,0.05,32.900000000000006,0)" xlink:href="#aM"/><use transform="matrix(0.05,0,0,0.05,37.900000000000006,0)" xlink:href="#aL"/><use transform="matrix(0.05,0,0,0.05,52.85,0)" xlink:href="#aO"/><use transform="matrix(0.05,0,0,0.05,65.80000000000001,0)" xlink:href="#aN"/><use transform="matrix(0.05,0,0,0.05,78.75000000000001,0)" xlink:href="#aP"/><use transform="matrix(0.05,0,0,0.05,88.75000000000001,0)" xlink:href="#aQ"/><use transform="matrix(0.05,0,0,0.05,99.70000000000002,0)" xlink:href="#aM"/><use transform="matrix(0.05,0,0,0.05,104.7,0)" xlink:href="#aL"/><use transform="matrix(0.05,0,0,0.05,119.65000000000003,0)" xlink:href="#aR"/></g><path d="M59-47c-2 24 18 29 38 22v24C64 9 27 4 27-40v-127H5v-23h24l9-43h21v43h35v23H59v120" id="aS"/><path d="M24-231v-30h32v30H24zM24 0v-190h32V0H24" id="aT"/><path d="M210-169c-67 3-38 105-44 169h-31v-121c0-29-5-50-35-48C34-165 62-65 56 0H25l-1-190h30c1 10-1 24 2 32 10-44 99-50 107 0 11-21 27-35 58-36 85-2 47 119 55 194h-31v-121c0-29-5-49-35-48" id="aU"/><path d="M100-194c63 0 86 42 84 106H49c0 40 14 67 53 68 26 1 43-12 49-29l28 8c-11 28-37 45-77 45C44 4 14-33 15-96c1-61 26-98 85-98zm52 81c6-60-76-77-97-28-3 7-6 17-6 28h103" id="aV"/><path d="M100-194c62-1 85 37 85 99 1 63-27 99-86 99S16-35 15-95c0-66 28-99 85-99zM99-20c44 1 53-31 53-75 0-43-8-75-51-75s-53 32-53 75 10 74 51 75" id="aW"/><path d="M84 4C-5 8 30-112 23-190h32v120c0 31 7 50 39 49 72-2 45-101 50-169h31l1 190h-30c-1-10 1-25-2-33-11 22-28 36-60 37" id="aX"/><g id="F"><use transform="matrix(0.05,0,0,0.05,0,0)" xlink:href="#aS"/><use transform="matrix(0.05,0,0,0.05,5,0)" xlink:href="#aT"/><use transform="matrix(0.05,0,0,0.05,8.95,0)" xlink:href="#aU"/><use transform="matrix(0.05,0,0,0.05,23.9,0)" xlink:href="#aV"/><use transform="matrix(0.05,0,0,0.05,33.9,0)" xlink:href="#aW"/><use transform="matrix(0.05,0,0,0.05,43.9,0)" xlink:href="#aX"/><use transform="matrix(0.05,0,0,0.05,53.900000000000006,0)" xlink:href="#aS"/></g><path d="M205 0l-28-72H64L36 0H1l101-248h38L239 0h-34zm-38-99l-47-123c-12 45-31 82-46 123h93" id="aY"/><path d="M195 0l-74-108L45 0H8l94-129-87-119h37l69 98 67-98h37l-84 118L233 0h-38" id="aZ"/><g id="G"><use transform="matrix(0.05,0,0,0.05,0,0)" xlink:href="#aL"/><use transform="matrix(0.05,0,0,0.05,14.950000000000001,0)" xlink:href="#aY"/><use transform="matrix(0.05,0,0,0.05,26.950000000000003,0)" xlink:href="#aZ"/><use transform="matrix(0.05,0,0,0.05,38.95,0)" xlink:href="#aM"/><use transform="matrix(0.05,0,0,0.05,43.95,0)" xlink:href="#aL"/><use transform="matrix(0.05,0,0,0.05,58.900000000000006,0)" xlink:href="#aO"/><use transform="matrix(0.05,0,0,0.05,71.85000000000001,0)" xlink:href="#aL"/><use transform="matrix(0.05,0,0,0.05,86.80000000000001,0)" xlink:href="#aP"/><use transform="matrix(0.05,0,0,0.05,96.80000000000001,0)" xlink:href="#aQ"/><use transform="matrix(0.05,0,0,0.05,107.75,0)" xlink:href="#aM"/><use transform="matrix(0.05,0,0,0.05,112.75,0)" xlink:href="#aL"/><use transform="matrix(0.05,0,0,0.05,127.7,0)" xlink:href="#aR"/></g><path d="M483-459l28 192 41-173 288-1016h162l281 1016 40 176 31-196 226-996h193L1420 0h-175L945-1061l-23-111-23 111L588 0H413L61-1456h192" id="ba"/><g id="H"><use transform="matrix(0.0087890625,0,0,0.0087890625,0,0)" xlink:href="#al"/><use transform="matrix(0.0087890625,0,0,0.0087890625,4.3681640625,0)" xlink:href="#ax"/><use transform="matrix(0.0087890625,0,0,0.0087890625,13.6494140625,0)" xlink:href="#ba"/><use transform="matrix(0.0087890625,0,0,0.0087890625,29.619140625,0)" xlink:href="#al"/><use transform="matrix(0.0087890625,0,0,0.0087890625,33.9873046875,0)" xlink:href="#am"/><use transform="matrix(0.0087890625,0,0,0.0087890625,43.9189453125,0)" xlink:href="#ak"/><use transform="matrix(0.0087890625,0,0,0.0087890625,54.0703125,0)" xlink:href="#ai"/><use transform="matrix(0.0087890625,0,0,0.0087890625,64.3359375,0)" xlink:href="#aC"/><use transform="matrix(0.0087890625,0,0,0.0087890625,77.8623046875,0)" xlink:href="#ah"/><use transform="matrix(0.0087890625,0,0,0.0087890625,87.5478515625,0)" xlink:href="#ai"/><use transform="matrix(0.0087890625,0,0,0.0087890625,97.8134765625,0)" xlink:href="#aj"/><use transform="matrix(0.0087890625,0,0,0.0087890625,107.6044921875,0)" xlink:href="#ak"/><use transform="matrix(0.0087890625,0,0,0.0087890625,117.755859375,0)" xlink:href="#ap"/><use transform="matrix(0.0087890625,0,0,0.0087890625,127.2919921875,0)" xlink:href="#ak"/></g><path d="M1288 0h-193L362-1122V0H169v-1456h193l735 1127v-1127h191V0" id="bb"/><g id="I"><use transform="matrix(0.0087890625,0,0,0.0087890625,0,0)" xlink:href="#bb"/><use transform="matrix(0.0087890625,0,0,0.0087890625,12.83203125,0)" xlink:href="#aH"/></g><path d="M992-673H361v516h733V0H169v-1456h915v158H361v468h631v157" id="bc"/><path d="M1222-777c17 480-206 763-650 777H169v-1456h411c408 9 627 269 642 679zm-190 4c3-312-149-522-447-525H361v1141h202c308 0 473-209 469-531v-85" id="bd"/><g id="J"><use transform="matrix(0.0087890625,0,0,0.0087890625,0,0)" xlink:href="#bc"/><use transform="matrix(0.0087890625,0,0,0.0087890625,10.23046875,0)" xlink:href="#bb"/><use transform="matrix(0.0087890625,0,0,0.0087890625,23.0625,0)" xlink:href="#bd"/></g><g id="K"><use transform="matrix(0.0087890625,0,0,0.0087890625,0,0)" xlink:href="#au"/><use transform="matrix(0.0087890625,0,0,0.0087890625,4.3681640625,0)" xlink:href="#ai"/><use transform="matrix(0.0087890625,0,0,0.0087890625,14.6337890625,0)" xlink:href="#aj"/><use transform="matrix(0.0087890625,0,0,0.0087890625,24.4248046875,0)" xlink:href="#ak"/><use transform="matrix(0.0087890625,0,0,0.0087890625,34.576171875,0)" xlink:href="#ap"/><use transform="matrix(0.0087890625,0,0,0.0087890625,44.1123046875,0)" xlink:href="#ak"/></g><path d="M613-725l380-731h218L709-543V0H517v-543L15-1456h220" id="be"/><g id="L"><use transform="matrix(0.0087890625,0,0,0.0087890625,0,0)" xlink:href="#be"/><use transform="matrix(0.0087890625,0,0,0.0087890625,10.810546875,0)" xlink:href="#bc"/><use transform="matrix(0.0087890625,0,0,0.0087890625,21.041015625,0)" xlink:href="#at"/></g><g id="M"><use transform="matrix(0.0087890625,0,0,0.0087890625,0,0)" xlink:href="#aC"/><use transform="matrix(0.0087890625,0,0,0.0087890625,13.5263671875,0)" xlink:href="#al"/><use transform="matrix(0.0087890625,0,0,0.0087890625,17.89453125,0)" xlink:href="#am"/><use transform="matrix(0.0087890625,0,0,0.0087890625,27.826171875,0)" xlink:href="#ak"/><use transform="matrix(0.0087890625,0,0,0.0087890625,37.9775390625,0)" xlink:href="#ai"/><use transform="matrix(0.0087890625,0,0,0.0087890625,48.2431640625,0)" xlink:href="#aC"/><use transform="matrix(0.0087890625,0,0,0.0087890625,61.76953125,0)" xlink:href="#ah"/><use transform="matrix(0.0087890625,0,0,0.0087890625,71.455078125,0)" xlink:href="#ai"/><use transform="matrix(0.0087890625,0,0,0.0087890625,81.720703125,0)" xlink:href="#aj"/><use transform="matrix(0.0087890625,0,0,0.0087890625,91.51171875,0)" xlink:href="#ak"/><use transform="matrix(0.0087890625,0,0,0.0087890625,101.6630859375,0)" xlink:href="#ap"/><use transform="matrix(0.0087890625,0,0,0.0087890625,111.19921875,0)" xlink:href="#ak"/></g><g id="N"><use transform="matrix(0.0087890625,0,0,0.0087890625,0,0)" xlink:href="#ar"/><use transform="matrix(0.0087890625,0,0,0.0087890625,15.7763671875,0)" xlink:href="#al"/><use transform="matrix(0.0087890625,0,0,0.0087890625,20.14453125,0)" xlink:href="#am"/><use transform="matrix(0.0087890625,0,0,0.0087890625,30.076171875,0)" xlink:href="#al"/><use transform="matrix(0.0087890625,0,0,0.0087890625,34.4443359375,0)" xlink:href="#ar"/><use transform="matrix(0.0087890625,0,0,0.0087890625,50.220703125,0)" xlink:href="#aA"/><use transform="matrix(0.0087890625,0,0,0.0087890625,60.1435546875,0)" xlink:href="#ar"/><use transform="matrix(0.0087890625,0,0,0.0087890625,75.919921875,0)" xlink:href="#aG"/><use transform="matrix(0.0087890625,0,0,0.0087890625,86.66015625,0)" xlink:href="#al"/><use transform="matrix(0.0087890625,0,0,0.0087890625,91.0283203125,0)" xlink:href="#ar"/><use transform="matrix(0.0087890625,0,0,0.0087890625,106.8046875,0)" xlink:href="#ap"/><use transform="matrix(0.0087890625,0,0,0.0087890625,116.3408203125,0)" xlink:href="#aH"/><use transform="matrix(0.0087890625,0,0,0.0087890625,128.7158203125,0)" xlink:href="#aD"/><use transform="matrix(0.0087890625,0,0,0.0087890625,137.3203125,0)" xlink:href="#ap"/><use transform="matrix(0.0087890625,0,0,0.0087890625,146.8564453125,0)" xlink:href="#aE"/></g><g id="O"><use transform="matrix(0.0087890625,0,0,0.0087890625,0,0)" xlink:href="#ar"/><use transform="matrix(0.0087890625,0,0,0.0087890625,15.7763671875,0)" xlink:href="#aj"/><use transform="matrix(0.0087890625,0,0,0.0087890625,25.5673828125,0)" xlink:href="#aB"/><use transform="matrix(0.0087890625,0,0,0.0087890625,34.48828125,0)" xlink:href="#al"/><use transform="matrix(0.0087890625,0,0,0.0087890625,38.8564453125,0)" xlink:href="#ar"/><use transform="matrix(0.0087890625,0,0,0.0087890625,54.6328125,0)" xlink:href="#aA"/><use transform="matrix(0.0087890625,0,0,0.0087890625,64.5556640625,0)" xlink:href="#ar"/><use transform="matrix(0.0087890625,0,0,0.0087890625,80.33203125,0)" xlink:href="#aG"/><use transform="matrix(0.0087890625,0,0,0.0087890625,91.072265625,0)" xlink:href="#al"/><use transform="matrix(0.0087890625,0,0,0.0087890625,95.4404296875,0)" xlink:href="#ar"/><use transform="matrix(0.0087890625,0,0,0.0087890625,111.216796875,0)" xlink:href="#ap"/><use transform="matrix(0.0087890625,0,0,0.0087890625,120.7529296875,0)" xlink:href="#aH"/><use transform="matrix(0.0087890625,0,0,0.0087890625,133.1279296875,0)" xlink:href="#aD"/><use transform="matrix(0.0087890625,0,0,0.0087890625,141.732421875,0)" xlink:href="#ap"/><use transform="matrix(0.0087890625,0,0,0.0087890625,151.2685546875,0)" xlink:href="#aE"/></g><g id="P"><use transform="matrix(0.0087890625,0,0,0.0087890625,0,0)" xlink:href="#au"/><use transform="matrix(0.0087890625,0,0,0.0087890625,4.3681640625,0)" xlink:href="#ai"/><use transform="matrix(0.0087890625,0,0,0.0087890625,14.6337890625,0)" xlink:href="#aj"/><use transform="matrix(0.0087890625,0,0,0.0087890625,24.4248046875,0)" xlink:href="#ak"/><use transform="matrix(0.0087890625,0,0,0.0087890625,34.576171875,0)" xlink:href="#ap"/><use transform="matrix(0.0087890625,0,0,0.0087890625,44.1123046875,0)" xlink:href="#ak"/><use transform="matrix(0.0087890625,0,0,0.0087890625,54.263671875,0)" xlink:href="#aK"/></g><g id="Q"><use transform="matrix(0.0087890625,0,0,0.0087890625,0,0)" xlink:href="#au"/><use transform="matrix(0.0087890625,0,0,0.0087890625,4.3681640625,0)" xlink:href="#ai"/><use transform="matrix(0.0087890625,0,0,0.0087890625,14.6337890625,0)" xlink:href="#aj"/><use transform="matrix(0.0087890625,0,0,0.0087890625,24.4248046875,0)" xlink:href="#ak"/><use transform="matrix(0.0087890625,0,0,0.0087890625,34.576171875,0)" xlink:href="#ap"/><use transform="matrix(0.0087890625,0,0,0.0087890625,44.1123046875,0)" xlink:href="#ak"/></g><g id="R"><use transform="matrix(0.0087890625,0,0,0.0087890625,0,0)" xlink:href="#be"/><use transform="matrix(0.0087890625,0,0,0.0087890625,10.2392578125,0)" xlink:href="#ap"/><use transform="matrix(0.0087890625,0,0,0.0087890625,19.775390625,0)" xlink:href="#ax"/></g><path d="M665-137c214 0 337-121 336-332v-987h193v990c-3 300-218 486-529 486-309 0-526-181-525-484v-992h190v986c-1 210 123 333 335 333" id="bf"/><g id="S"><use transform="matrix(0.0087890625,0,0,0.0087890625,0,0)" xlink:href="#bf"/><use transform="matrix(0.0087890625,0,0,0.0087890625,11.671875,0)" xlink:href="#am"/><use transform="matrix(0.0087890625,0,0,0.0087890625,21.603515625,0)" xlink:href="#ax"/><use transform="matrix(0.0087890625,0,0,0.0087890625,30.884765625,0)" xlink:href="#ap"/><use transform="matrix(0.0087890625,0,0,0.0087890625,40.4208984375,0)" xlink:href="#as"/></g><g id="T"><use transform="matrix(0.0087890625,0,0,0.0087890625,0,0)" xlink:href="#bb"/><use transform="matrix(0.0087890625,0,0,0.0087890625,12.83203125,0)" xlink:href="#ai"/></g><path d="M1161-1018c0 201-122 330-278 388l342 618V0h-206L703-589H361V0H168v-1456h482c310-2 511 139 511 438zm-193 0c0-187-120-280-313-280H361v552h295c179 3 313-101 312-272" id="bg"/><g id="U"><use transform="matrix(0.0087890625,0,0,0.0087890625,0,0)" xlink:href="#bg"/><use transform="matrix(0.0087890625,0,0,0.0087890625,11.0830078125,0)" xlink:href="#ap"/><use transform="matrix(0.0087890625,0,0,0.0087890625,20.619140625,0)" xlink:href="#ar"/><use transform="matrix(0.0087890625,0,0,0.0087890625,36.3955078125,0)" xlink:href="#ai"/><use transform="matrix(0.0087890625,0,0,0.0087890625,46.529296875,0)" xlink:href="#aD"/><use transform="matrix(0.0087890625,0,0,0.0087890625,55.248046875,0)" xlink:href="#al"/><use transform="matrix(0.0087890625,0,0,0.0087890625,59.6162109375,0)" xlink:href="#am"/><use transform="matrix(0.0087890625,0,0,0.0087890625,69.5478515625,0)" xlink:href="#an"/></g><path d="M704-1390c-164-38-297 28-288 194v114h231v143H416V0H231v-939H60v-143h171v-111c-12-274 208-416 483-347" id="bh"/><g id="V"><use transform="matrix(0.0087890625,0,0,0.0087890625,0,0)" xlink:href="#bh"/><use transform="matrix(0.0087890625,0,0,0.0087890625,6.2490234375,0)" xlink:href="#aE"/><use transform="matrix(0.0087890625,0,0,0.0087890625,12.1640625,0)" xlink:href="#ai"/><use transform="matrix(0.0087890625,0,0,0.0087890625,22.4296875,0)" xlink:href="#ar"/></g><g id="W"><use transform="matrix(0.0087890625,0,0,0.0087890625,0,0)" xlink:href="#al"/><use transform="matrix(0.0087890625,0,0,0.0087890625,4.3681640625,0)" xlink:href="#ax"/><use transform="matrix(0.0087890625,0,0,0.0087890625,13.6494140625,0)" xlink:href="#ah"/><use transform="matrix(0.0087890625,0,0,0.0087890625,23.3349609375,0)" xlink:href="#ai"/><use transform="matrix(0.0087890625,0,0,0.0087890625,33.6005859375,0)" xlink:href="#aj"/><use transform="matrix(0.0087890625,0,0,0.0087890625,43.3916015625,0)" xlink:href="#ak"/><use transform="matrix(0.0087890625,0,0,0.0087890625,53.54296875,0)" xlink:href="#ap"/><use transform="matrix(0.0087890625,0,0,0.0087890625,63.0791015625,0)" xlink:href="#ak"/></g><g id="X"><use transform="matrix(0.0087890625,0,0,0.0087890625,0,0)" xlink:href="#au"/><use transform="matrix(0.0087890625,0,0,0.0087890625,4.3681640625,0)" xlink:href="#ai"/><use transform="matrix(0.0087890625,0,0,0.0087890625,14.6337890625,0)" xlink:href="#aj"/><use transform="matrix(0.0087890625,0,0,0.0087890625,24.4248046875,0)" xlink:href="#ak"/><use transform="matrix(0.0087890625,0,0,0.0087890625,34.576171875,0)" xlink:href="#ap"/><use transform="matrix(0.0087890625,0,0,0.0087890625,44.1123046875,0)" xlink:href="#ak"/></g><g id="Y"><use transform="matrix(0.0087890625,0,0,0.0087890625,0,0)" xlink:href="#aC"/><use transform="matrix(0.0087890625,0,0,0.0087890625,13.5263671875,0)" xlink:href="#aj"/><use transform="matrix(0.0087890625,0,0,0.0087890625,23.3173828125,0)" xlink:href="#ax"/></g><g id="Z"><use transform="matrix(0.0087890625,0,0,0.0087890625,0,0)" xlink:href="#aw"/><use transform="matrix(0.0087890625,0,0,0.0087890625,9.421875,0)" xlink:href="#aj"/><use transform="matrix(0.0087890625,0,0,0.0087890625,19.212890625,0)" xlink:href="#au"/><use transform="matrix(0.0087890625,0,0,0.0087890625,23.5810546875,0)" xlink:href="#au"/><use transform="matrix(0.0087890625,0,0,0.0087890625,27.94921875,0)" xlink:href="#ap"/><use transform="matrix(0.0087890625,0,0,0.0087890625,37.4853515625,0)" xlink:href="#ak"/></g><path fill="#333" d="M430-241h637V0H130v-1456h300v1215" id="bi"/><path fill="#333" d="M579 20C257 20 58-214 66-551c8-331 182-551 511-551 324 0 514 231 514 572 0 319-198 550-512 550zm-2-888c-169 0-222 141-222 338 0 181 61 317 224 317 170 0 223-137 223-338 0-178-64-317-225-317" id="bj"/><path fill="#333" d="M552-1102c254-4 435 134 435 383v469c1 103 15 180 43 233V0H738c-13-26-23-58-29-97C639-19 548 20 436 20 238 20 64-113 68-304c5-258 212-357 496-357h133c11-137-29-227-160-227-90 0-156 45-156 131H92c15-231 213-342 460-345zM357-325c0 76 61 124 142 124 88 0 168-45 198-105v-186H589c-152 2-232 51-232 167" id="bk"/><path fill="#333" d="M488 20C204 20 66-234 66-549c0-305 140-551 424-553 105 0 192 39 261 118v-552h290V0H780l-14-115C694-25 601 20 488 20zM355-528c0 176 51 314 207 314 89 0 152-38 189-113v-427c-36-75-98-113-187-113-139 0-209 113-209 339" id="bl"/><path fill="#333" d="M416 0H126v-1082h290V0zM271-1212c-92 0-162-61-162-150s68-149 162-149c93 0 162 60 162 149s-70 150-162 150" id="bm"/><path fill="#333" d="M750-692c-1-124-48-174-173-175-81 0-142 35-183 104V0H105v-1082h272l9 125c77-97 181-145 311-145 244 0 342 151 342 403V0H750v-692" id="bn"/><path fill="#333" d="M505 20C221 18 69-239 69-549c0-302 153-553 438-553 119 0 211 41 277 122l12-102h262V-36c-8 305-208 458-520 462-160 1-335-76-403-170L263 80c72 81 159 121 262 121 172 1 260-107 243-294C701-18 614 20 505 20zm76-887c-165 0-223 147-223 339 0 172 66 314 221 314 88 0 151-33 189-99v-455c-39-66-101-99-187-99" id="bo"/><g id="aa"><use transform="matrix(0.013129340277777775,0,0,0.013129340277777775,0,0)" xlink:href="#bi"/><use transform="matrix(0.013129340277777775,0,0,0.013129340277777775,14.560438368055552,0)" xlink:href="#bj"/><use transform="matrix(0.013129340277777775,0,0,0.013129340277777775,29.764214409722214,0)" xlink:href="#bk"/><use transform="matrix(0.013129340277777775,0,0,0.013129340277777775,44.180230034722214,0)" xlink:href="#bl"/><use transform="matrix(0.013129340277777775,0,0,0.013129340277777775,59.331488715277764,0)" xlink:href="#bm"/><use transform="matrix(0.013129340277777775,0,0,0.013129340277777775,66.4607204861111,0)" xlink:href="#bn"/><use transform="matrix(0.013129340277777775,0,0,0.013129340277777775,81.5200737847222,0)" xlink:href="#bo"/></g><path fill="#333" d="M1245-974c0 302-233 466-552 461H430V0H130v-1456h568c323 5 547 167 547 482zm-303 2c1-143-93-241-237-241H430v457h268c151 1 244-71 244-216" id="bp"/><path fill="#333" d="M1031-175C952-60 797 20 609 20 287 20 60-206 72-543c12-330 180-559 505-559 309 0 482 214 477 537v118H365c15 134 115 234 263 234 111 0 198-40 261-121zM770-644c5-139-62-226-194-224-130 1-191 97-208 224h402" id="bq"/><g id="ab"><use transform="matrix(0.013129340277777775,0,0,0.013129340277777775,0,0)" xlink:href="#bp"/><use transform="matrix(0.013129340277777775,0,0,0.013129340277777775,17.199435763888882,0)" xlink:href="#bk"/><use transform="matrix(0.013129340277777775,0,0,0.013129340277777775,31.615451388888882,0)" xlink:href="#bn"/><use transform="matrix(0.013129340277777775,0,0,0.013129340277777775,46.674804687499986,0)" xlink:href="#bq"/></g><path fill="#333" d="M952-300H426L326 0H7l542-1456h278L1372 0h-319zM507-543h364l-183-545" id="br"/><path fill="#333" d="M741-689c-2-124-40-177-163-178-82 0-141 34-178 102V0H111v-1082h271l9 121c77-94 180-141 311-141 139 0 235 55 287 165 76-110 184-165 325-165 249 0 348 151 348 411V0h-290v-690c-2-123-39-176-163-177-87 0-147 41-180 124l1 743H741v-689" id="bs"/><path fill="#333" d="M457-330c2 83 25 111 111 112 32 0 60-2 85-7V-6c-57 17-115 26-175 26-203 0-310-102-310-307v-583H10v-212h158v-266h289v266h185v212H457v540" id="bt"/><g id="ac"><use transform="matrix(0.013129340277777775,0,0,0.013129340277777775,0,0)" xlink:href="#br"/><use transform="matrix(0.013129340277777775,0,0,0.013129340277777775,18.092230902777775,0)" xlink:href="#bn"/><use transform="matrix(0.013129340277777775,0,0,0.013129340277777775,33.151584201388886,0)" xlink:href="#bm"/><use transform="matrix(0.013129340277777775,0,0,0.013129340277777775,40.280815972222214,0)" xlink:href="#bs"/><use transform="matrix(0.013129340277777775,0,0,0.013129340277777775,63.55913628472221,0)" xlink:href="#bk"/><use transform="matrix(0.013129340277777775,0,0,0.013129340277777775,77.9751519097222,0)" xlink:href="#bt"/><use transform="matrix(0.013129340277777775,0,0,0.013129340277777775,87.06065538194441,0)" xlink:href="#bm"/><use transform="matrix(0.013129340277777775,0,0,0.013129340277777775,94.18988715277774,0)" xlink:href="#bj"/><use transform="matrix(0.013129340277777775,0,0,0.013129340277777775,109.3936631944444,0)" xlink:href="#bn"/></g><path fill="#333" d="M416 0H126v-1536h290V0" id="bu"/><path fill="#333" d="M719-811c-143-24-279 1-319 103V0H111v-1082h273l8 129c74-124 180-175 331-136" id="bv"/><path fill="#333" d="M750-685c-1-124-48-182-173-182-85 0-146 33-184 98V0H104v-1536h289v572c77-92 173-138 289-138 235 0 357 136 357 409V0H750v-685" id="bw"/><g id="ad"><use transform="matrix(0.013129340277777775,0,0,0.013129340277777775,0,0)" xlink:href="#br"/><use transform="matrix(0.013129340277777775,0,0,0.013129340277777775,18.092230902777775,0)" xlink:href="#bu"/><use transform="matrix(0.013129340277777775,0,0,0.013129340277777775,25.221462673611107,0)" xlink:href="#bo"/><use transform="matrix(0.013129340277777775,0,0,0.013129340277777775,40.56966145833333,0)" xlink:href="#bj"/><use transform="matrix(0.013129340277777775,0,0,0.013129340277777775,55.7734375,0)" xlink:href="#bv"/><use transform="matrix(0.013129340277777775,0,0,0.013129340277777775,65.58105468749999,0)" xlink:href="#bm"/><use transform="matrix(0.013129340277777775,0,0,0.013129340277777775,72.71028645833331,0)" xlink:href="#bt"/><use transform="matrix(0.013129340277777775,0,0,0.013129340277777775,81.79578993055553,0)" xlink:href="#bw"/><use transform="matrix(0.013129340277777775,0,0,0.013129340277777775,96.84201388888886,0)" xlink:href="#bs"/></g><path fill="#ef8d22" d="M687-225c189-1 272-84 286-260h300c-19 311-251 505-586 505C296 20 86-277 86-686c0-466 174-782 605-790 340-6 557 198 584 514H975c-15-183-92-268-284-268-100 0-173 38-225 108-63 84-76 264-76 443 0 157 24 272 72 345s122 109 225 109" id="bx"/><path fill="#ef8d22" d="M579 20C257 20 58-214 66-551c8-331 182-551 511-551 324 0 514 231 514 572 0 319-198 550-512 550zm-2-888c-169 0-222 141-222 338 0 181 61 317 224 317 170 0 223-137 223-338 0-178-64-317-225-317" id="by"/><path fill="#ef8d22" d="M750-692c-1-124-48-174-173-175-81 0-142 35-183 104V0H105v-1082h272l9 125c77-97 181-145 311-145 244 0 342 151 342 403V0H750v-692" id="bz"/><path fill="#ef8d22" d="M416 0H126v-1082h290V0zM271-1212c-92 0-162-61-162-150s68-149 162-149c93 0 162 60 162 149s-70 150-162 150" id="bA"/><path fill="#ef8d22" d="M1031-175C952-60 797 20 609 20 287 20 60-206 72-543c12-330 180-559 505-559 309 0 482 214 477 537v118H365c15 134 115 234 263 234 111 0 198-40 261-121zM770-644c5-139-62-226-194-224-130 1-191 97-208 224h402" id="bB"/><path fill="#ef8d22" d="M529-185c94 0 168-33 168-114 0-35-18-63-53-83s-91-39-168-55C219-491 90-600 90-765c0-208 203-337 432-337 246 0 451 124 453 349H686c-2-91-62-143-165-143-86 0-151 41-153 117 0 32 16 57 46 77 63 43 257 69 335 100 151 60 229 153 229 291C978-13 554 93 282-28 162-81 60-190 56-344h274c5 106 86 159 199 159" id="bC"/><path fill="#ef8d22" d="M457-330c2 83 25 111 111 112 32 0 60-2 85-7V-6c-57 17-115 26-175 26-203 0-310-102-310-307v-583H10v-212h158v-266h289v266h185v212H457v540" id="bD"/><path fill="#ef8d22" d="M355-556c-2 203 30 338 206 343 102 3 181-63 182-161h271C1001-128 821 17 566 20 242 24 66-212 66-554c0-320 184-548 498-548 262 0 451 167 450 423H743c-1-108-75-193-184-189-162 6-202 123-204 312" id="bE"/><path fill="#ef8d22" d="M552-1102c254-4 435 134 435 383v469c1 103 15 180 43 233V0H738c-13-26-23-58-29-97C639-19 548 20 436 20 238 20 64-113 68-304c5-258 212-357 496-357h133c11-137-29-227-160-227-90 0-156 45-156 131H92c15-231 213-342 460-345zM357-325c0 76 61 124 142 124 88 0 168-45 198-105v-186H589c-152 2-232 51-232 167" id="bF"/><g id="ae"><use transform="matrix(0.010959201388888883,0,0,0.010959201388888883,0,0)" xlink:href="#bx"/><use transform="matrix(0.010959201388888883,0,0,0.010959201388888883,14.685329861111104,0)" xlink:href="#by"/><use transform="matrix(0.010959201388888883,0,0,0.010959201388888883,27.37608506944443,0)" xlink:href="#bz"/><use transform="matrix(0.010959201388888883,0,0,0.010959201388888883,39.94628906249998,0)" xlink:href="#bA"/><use transform="matrix(0.010959201388888883,0,0,0.010959201388888883,45.89713541666664,0)" xlink:href="#bB"/><use transform="matrix(0.010959201388888883,0,0,0.010959201388888883,58.028971354166636,0)" xlink:href="#bC"/><use transform="matrix(0.010959201388888883,0,0,0.010959201388888883,69.56901041666663,0)" xlink:href="#bD"/><use transform="matrix(0.010959201388888883,0,0,0.010959201388888883,77.15277777777774,0)" xlink:href="#bA"/><use transform="matrix(0.010959201388888883,0,0,0.010959201388888883,83.1036241319444,0)" xlink:href="#bE"/><use transform="matrix(0.010959201388888883,0,0,0.010959201388888883,94.80805121527773,0)" xlink:href="#bF"/></g><path fill="#ef8d22" d="M1006-631H430v390h676V0H130v-1456h974v243H430v347h576v235" id="bG"/><path fill="#ef8d22" d="M523-759l182-323h309L706-552 1027 0H717L524-340 332 0H21l321-552-307-530h310" id="bH"/><path fill="#ef8d22" d="M741-689c-2-124-40-177-163-178-82 0-141 34-178 102V0H111v-1082h271l9 121c77-94 180-141 311-141 139 0 235 55 287 165 76-110 184-165 325-165 249 0 348 151 348 411V0h-290v-690c-2-123-39-176-163-177-87 0-147 41-180 124l1 743H741v-689" id="bI"/><path fill="#ef8d22" d="M663-1102c295 0 422 250 422 571 0 300-141 549-420 551-109 0-198-38-265-114v510H111v-1498h268l10 106c70-84 161-126 274-126zm133 550c0-175-53-315-209-315-91 0-153 35-187 104v443c35 71 98 107 189 107 138 0 207-113 207-339" id="bJ"/><path fill="#ef8d22" d="M416 0H126v-1536h290V0" id="bK"/><g id="af"><use transform="matrix(0.010959201388888883,0,0,0.010959201388888883,0,0)" xlink:href="#bG"/><use transform="matrix(0.010959201388888883,0,0,0.010959201388888883,12.624999999999993,0)" xlink:href="#bH"/><use transform="matrix(0.010959201388888883,0,0,0.010959201388888883,24.04448784722221,0)" xlink:href="#bF"/><use transform="matrix(0.010959201388888883,0,0,0.010959201388888883,36.0776909722222,0)" xlink:href="#bI"/><use transform="matrix(0.010959201388888883,0,0,0.010959201388888883,55.50835503472218,0)" xlink:href="#bJ"/><use transform="matrix(0.010959201388888883,0,0,0.010959201388888883,68.14431423611107,0)" xlink:href="#bK"/><use transform="matrix(0.010959201388888883,0,0,0.010959201388888883,74.09516059027773,0)" xlink:href="#bB"/></g><path fill="#ef8d22" d="M1245-974c0 302-233 466-552 461H430V0H130v-1456h568c323 5 547 167 547 482zm-303 2c1-143-93-241-237-241H430v457h268c151 1 244-71 244-216" id="bL"/><path fill="#ef8d22" d="M719-811c-143-24-279 1-319 103V0H111v-1082h273l8 129c74-124 180-175 331-136" id="bM"/><path fill="#ef8d22" d="M417 59c1 237-132 380-369 378-50 0-98-6-143-17V191c122 27 222 1 222-130v-1143h290V59zM266-1212c-92 0-162-61-162-150s68-149 162-149 162 60 162 149-70 150-162 150" id="bN"/><g id="ag"><use transform="matrix(0.010959201388888883,0,0,0.010959201388888883,0,0)" xlink:href="#bL"/><use transform="matrix(0.010959201388888883,0,0,0.010959201388888883,14.477105034722214,0)" xlink:href="#bM"/><use transform="matrix(0.010959201388888883,0,0,0.010959201388888883,22.269097222222207,0)" xlink:href="#by"/><use transform="matrix(0.010959201388888883,0,0,0.010959201388888883,34.959852430555536,0)" xlink:href="#bN"/><use transform="matrix(0.010959201388888883,0,0,0.010959201388888883,40.79014756944442,0)" xlink:href="#bB"/><use transform="matrix(0.010959201388888883,0,0,0.010959201388888883,52.921983506944414,0)" xlink:href="#bE"/><use transform="matrix(0.010959201388888883,0,0,0.010959201388888883,64.62641059027774,0)" xlink:href="#bD"/></g></defs></g></svg>